<svg width="106" height="106" viewBox="0 0 106 106" fill="none" xmlns="http://www.w3.org/2000/svg">
<path d="M0.5 12.1667V93.8333C0.5 100.25 5.69167 105.5 12.1667 105.5H93.8333C100.25 105.5 105.5 100.25 105.5 93.8333V12.1667C105.5 5.75 100.25 0.5 93.8333 0.5H12.1667C5.69167 0.5 0.5 5.75 0.5 12.1667ZM70.5 35.5C70.5 45.1833 62.6833 53 53 53C43.3167 53 35.5 45.1833 35.5 35.5C35.5 25.8167 43.3167 18 53 18C62.6833 18 70.5 25.8167 70.5 35.5ZM18 82.1667C18 70.5 41.3333 64.0833 53 64.0833C64.6667 64.0833 88 70.5 88 82.1667V88H18V82.1667Z" fill="#5B5B5B"/>
</svg>
