<svg xmlns="http://www.w3.org/2000/svg" viewBox="0 0 798.31 222.26"><defs><style>.cls-1{fill:#3cbcad;}.cls-2{fill:#2e897c;}.cls-3{fill:#1e5b52;}</style></defs><title>자산 4</title><g id="레이어_2" data-name="레이어 2"><g id="레이어_1-2" data-name="레이어 1"><path class="cls-1" d="M59.81.08c6.66,0,13.31-.17,20,0C91.6.48,100,9,100.19,20.84c.11,7.48-.06,15,.07,22.45,0,2.7-.79,3.77-3.66,3.91a106,106,0,0,0-27.32,5.14c-2.87.92-4.56.35-6.42-1.84-10-11.76-20.16-23.42-30.24-35.13A21,21,0,0,1,30.85,13c-4.16-6.43-1.66-12,6-12.67,5.45-.48,11-.21,16.45-.26,2.16,0,4.32,0,6.48,0Z"/><path class="cls-1" d="M111.09,46.8c0-10.12-.48-19.78.13-29.38.59-9.25,9.39-17,19.12-17.21,14-.3,28-.1,42-.06,3.8,0,7.6.69,9.37,4.49s-.3,7.22-2.69,10.06c-8,9.54-17,18.45-24.2,28.56-6.08,8.5-12.33,10.76-22,6.87C126.24,47.48,118.86,47.42,111.09,46.8Z"/><path class="cls-1" d="M59.56,222.23q-10,0-20,0c-3.92,0-8-.15-10-4.15-2.06-4.18.24-7.8,2.9-10.91,8.76-10.24,18.05-20.07,26.3-30.7,4.67-6,8.9-7.72,16.17-4.9,6.43,2.49,13.54,3.38,20.56,3.54,3.58.08,4.91,1.56,4.79,5.22-.25,7.15,0,14.32-.11,21.48-.22,11.95-8.71,20.31-20.63,20.41C72.89,222.28,66.22,222.23,59.56,222.23Z"/><path class="cls-1" d="M151.25,222.23c-6.66,0-13.32.07-20,0-11.58-.13-20.15-8.66-20.29-20.21-.09-7.49.1-15-.08-22.48-.07-3.05,1.22-4.23,4-4.35a110.84,110.84,0,0,0,27.83-5.31c2.36-.73,3.71-.12,5.15,1.56,10.27,12,20.62,23.94,30.84,36,2.49,2.94,4.9,6.36,2.89,10.42s-5.9,4.43-9.9,4.4C164.9,222.2,158.08,222.23,151.25,222.23Z"/><path class="cls-1" d="M157.3,164.69c16.78-6.9,32.18-16.89,47.71-28.27.36,5.21.87,9.45.89,13.69.1,16.33.07,32.65,0,49a40.23,40.23,0,0,1-.74,7.42c-1.1,5.69-4.79,7.12-9.36,3.62-3.6-2.76-6.2-6.49-9.15-9.88q-14.08-16.2-28.14-32.42A3.3,3.3,0,0,1,157.3,164.69Z"/><path class="cls-1" d="M205.13,86.14c-15.67-11.6-31-21.44-48.13-28.53,1.66-4.52,5.32-7.07,8-10.29,9-10.68,18.11-21.24,27.29-31.75,2.39-2.73,5.17-6.07,9.14-4.93,4.29,1.24,4.21,5.89,4.24,9.34C205.93,41.56,206.55,63.15,205.13,86.14Z"/><path class="cls-1" d="M54.76,165.14c-8,9.35-15.49,18.06-23,26.7Q24.23,200.5,16.53,209c-1.83,2-4.05,3.69-7,2.76-2.82-.88-3.34-3.44-3.78-5.95a7.16,7.16,0,0,1-.25-1c0-22.42,0-44.84,0-69C21.32,148,36.93,157.49,54.76,165.14Z"/><path class="cls-1" d="M54.66,57.3c-17.77,7.51-33.14,17.25-48,28.23A17.86,17.86,0,0,1,5.2,77.21c0-18.46-.06-36.93,0-55.39,0-4.25-.49-9.66,4.5-11.12,4.45-1.3,7.25,3,10,6.15q15,17.32,30.1,34.63C51.32,53.2,52.74,55,54.66,57.3Z"/><path class="cls-2" d="M0,117.05c26,0,50.78,0,75.54,0,3.58,0,7.21.77,8.94,4.34s.28,7.17-2.11,10.16C76.25,139.25,70,146.83,63.91,154.5c-1.4,1.76-2.8,1.83-4.77,1C37.45,146.49,18.31,133.58,0,117.05Z"/><path class="cls-3" d="M210.57,117.41A204.09,204.09,0,0,1,167.8,148c-5,2.67-10.24,4.79-15.33,7.28-2.24,1.09-3.79,1.08-5.53-1.14-5.65-7.21-11.59-14.2-17.32-21.34a20,20,0,0,1-3.06-5.12c-1.84-4.64-.09-8.28,4.68-9.76a20.12,20.12,0,0,1,5.88-.86q35.49-.09,71,0A22.15,22.15,0,0,1,210.57,117.41Z"/><path class="cls-2" d="M.2,106.21A201.85,201.85,0,0,1,27,85.11a187.23,187.23,0,0,1,31.58-17c2.17-.92,3.8-1.27,5.58,1,5.62,7.22,11.51,14.23,17.24,21.36A21.58,21.58,0,0,1,84,94.7c2.59,5.42.74,9.44-5.05,11.06a11.76,11.76,0,0,1-2.95.44C51.27,106.22,26.5,106.21.2,106.21Z"/><path class="cls-3" d="M210.2,105.44c-2.24,1.25-3.91.81-5.51.81q-32.92.06-65.86,0a41.37,41.37,0,0,1-5-.17c-7.34-.89-10.23-6.26-6.21-12.42,5.92-9.06,13.43-16.91,20.17-25.34,1.24-1.56,2.51-1.07,4-.47C173.46,76.67,192.43,89.64,210.2,105.44Z"/><path class="cls-3" d="M99.94,164.86c-9.23-.25-17.72-2.16-27.08-4.49,6.41-8,11.59-16.21,19.21-22.3,3.74-3,7.27-1,7.88,4.16C100.81,149.64,100.11,157.07,99.94,164.86Z"/><path class="cls-3" d="M138.3,160.08A114,114,0,0,1,111.2,165c-.46-7.92-.77-15.54.06-23.09.59-5.44,4.74-6.86,8.91-3.07C126.91,145,131.89,152.63,138.3,160.08Z"/><path class="cls-2" d="M73.14,63.32c9-3.26,17.57-4.16,26.64-5,.51,8.13,1,15.75.06,23.33-.62,4.89-4.64,6.51-8.34,3.25C84.5,78.75,79.17,71.11,73.14,63.32Z"/><path class="cls-2" d="M111.1,58.38c9.31.67,17.78,1.82,26.86,4.83-6.26,8.1-11.55,16.31-19.33,22.29-3.46,2.66-7.15.45-7.43-4.51C110.79,73.71,111.1,66.4,111.1,58.38Z"/><path class="cls-1" d="M661.69,121.49V61.25c5.08,0,9.67-.17,14.24.07,3,.15,2.32,2.77,2.33,4.64.06,11,0,22,0,33q0,25.71,0,51.44c0,1.31-.15,2.62-.27,4.65-5,0-10,.08-14.91,0-2.34-.06-2.62-2.34-3.41-3.87q-13.77-26.58-27.45-53.19a19,19,0,0,0-2-2.32v59.06H613.84c-1.3-1.19-.74-3-.74-4.55,0-27.8.07-55.61-.13-83.41,0-4.43,1.43-5.27,5.63-5.77,8.75-1,13.19,2.26,16.84,10.33,7.6,16.8,16.54,33,24.94,49.43C660.5,120.92,660.88,121,661.69,121.49Z"/><path class="cls-1" d="M438.07,85.15c0,5.57,0,10.52,0,15.47q0,27-.11,53.93c0,15.91-8.52,24.45-24.29,24.49-9.63,0-19.26,0-29.28,0a60.63,60.63,0,0,1-.1-15c9.51,0,18.78.06,28.06,0,6.61-.06,10-3.89,9.5-11-6.07,0-12.19,0-18.31,0-12.59,0-21-5.94-23-18.35-1.67-10.77-1.95-22,.37-32.74,2.35-10.94,10.45-16.8,21.67-16.82C414.11,85.13,425.59,85.15,438.07,85.15ZM422,100.27c-5.4,0-10.5-.07-15.6,0A10.28,10.28,0,0,0,396,110.21c-.25,5.81-.22,11.64,0,17.44.18,5.1,4,10,8.53,10.28,5.74.41,11.52.1,17.5.1Z"/><path class="cls-1" d="M312.05,154.88c-1.8.09-2.94.19-4.09.18-3.83,0-8.25,1.07-11.32-.48-3.31-1.67-2.57-6.75-3.59-10.33-.64-2.28-1.7-3.25-4.18-3.19-6,.15-12,.17-18,0-2.91-.11-4.06,1-4.76,3.74-2.65,10.36-2.74,10.33-13.3,10.31h-4.71c-1.45-2-.23-3.6.15-5.08,7.13-28.05,14.43-56.06,21.46-84.13.9-3.6,2.3-4.8,6-4.77,13.06.11,13.21-.06,16.33,12.37,6.49,25.81,12.81,51.66,19.18,77.5C311.52,152.06,311.71,153.19,312.05,154.88Zm-23-28.06L280.8,89.48l-1.53.06c-2.93,12.31-5.87,24.62-8.89,37.28Z"/><path class="cls-1" d="M749.06,126.89c-15.21.77-29.81-.6-44.27.82-.82,8.93,2.24,12.34,10.85,12.38,10.15,0,20.29,0,31,0a78.5,78.5,0,0,1-.14,14.85c-13.16,0-26.16.73-39-.23-10.79-.81-18.4-10.39-18.7-21.37q-.33-12.73,0-25.47a23.4,23.4,0,0,1,23.69-22.73c4,0,8,.28,12-.05,14.12-1.19,23.22,10.19,24.47,21.87C749.62,113.37,749.06,119.89,749.06,126.89Zm-44.18-13.2H732.8c.15-7.73-3.68-12.06-10.1-12.61C708.74,99.87,705.12,105.38,704.88,113.69Z"/><path class="cls-1" d="M446.23,119.37c0-3.33-.09-6.66,0-10,.36-12.27,7.15-20.77,19.15-23.44a42.49,42.49,0,0,1,21.71.53c8.79,2.68,14.61,8.72,15.95,18a103.63,103.63,0,0,1-.09,31.79c-1.52,9.2-7.45,15-16.32,17.7-6.33,1.9-13,1.72-19.32.83-13.15-1.85-21-11.49-21.15-24.92,0-3.5,0-7,0-10.49Zm15.85.81c0,2.66-.05,5.32,0,8,.19,7.59,3.93,10.9,12.27,10.94,9.26,0,13.34-3.16,13.52-10.78.12-5.33.07-10.66,0-16-.08-7.74-4-11.19-12.6-11.22-9.17,0-13.07,3.23-13.21,11.07C462.05,114.85,462.08,117.51,462.08,120.18Z"/><path class="cls-1" d="M516.27,154.34V141.07c6.45,0,12.71,0,19,0,3.49,0,7,.2,10.48-.12,4.78-.46,7.61-3.4,7.43-7.16s-3.38-6.47-8-6.65c-4.15-.17-8.32,0-12.48,0-12.11,0-18.66-5.5-20.39-17.28-2.26-15.38,7.48-27.44,22-25.77,5.26.61,10.64.1,16,.1h11.12c1.25,4.51.46,8.79.56,12.92-1.85,1.77-4,1-5.85,1-6.83.08-13.65,0-20.47,0a7.24,7.24,0,0,0-7.46,7.53c0,4.44,2.83,7.37,7.44,7.43,4.83.07,9.66,0,14.48,0,9.83.17,16.9,6.74,18.13,16.46,2.34,18.5-8.83,26.6-22.74,25.58-7.94-.58-16-.08-24-.13C519.91,155,518.21,155.45,516.27,154.34Z"/><path class="cls-1" d="M785,61.18V84.4c4.28,1.61,8.55,0,12.81,1.2,1,4.92.21,9.84.46,14.83-4.29,1.49-8.54,0-13.07,1.16v53.09H769V101.34H756V85.94c3.81-1.69,7.74-.1,12.32-1.35,0-6,.22-12.2-.07-18.42-.19-4,1.16-5.39,5.11-5.05C777,61.42,780.64,61.18,785,61.18Z"/><path class="cls-1" d="M323.18,154.75V84.49a104.19,104.19,0,0,1,16.58-.11V97.8c9.28-8.55,19.28-12,31.05-11.57v16.6a38.28,38.28,0,0,0-25.08,11,18.05,18.05,0,0,0-5.83,14.24c.28,8.77.07,17.55.07,26.64Z"/></g></g></svg>