<svg width="467" height="270" xmlns="http://www.w3.org/2000/svg" xmlns:xlink="http://www.w3.org/1999/xlink" overflow="hidden"><defs><clipPath id="clip0"><rect x="360" y="191" width="467" height="270"/></clipPath></defs><g clip-path="url(#clip0)" transform="translate(-360 -191)"><text fill="#3CBCAD" font-family="KoPubDotum Bold,KoPubDotum Bold_MSFontService,sans-serif" font-weight="700" font-size="128" transform="translate(437.744 349)">argos</text><path d="M446.329 301.367 431.487 272.367 434.158 274 402 274 402 268 435.993 268 451.671 298.633ZM402 280C397.029 280 393 275.971 393 271 393 266.029 397.029 262 402 262 406.971 262 411 266.029 411 271 411 275.971 406.971 280 402 280Z" fill="#3CBCAD"/><path d="M442.86 331.103 431.067 319.103 433.207 320 388 320 388 314 434.465 314 447.14 326.897ZM388 326C383.029 326 379 321.971 379 317 379 312.029 383.029 308 388 308 392.971 308 397 312.029 397 317 397 321.971 392.971 326 388 326Z" fill="#3CBCAD"/><path d="M-3 23-3 0 3 0 3 23ZM-9 0C-9-4.97056-4.97056-9 0-9 4.97056-9 9-4.97056 9 0 9 4.97056 4.97056 9 0 9-4.97056 9-9 4.97056-9 0Z" fill="#3CBCAD" transform="matrix(-1 0 0 1 417 294)"/><path d="M445 341 418.429 341 420.567 340.104 399.019 362 383 362 383 356 397.762 356 395.624 356.896 417.172 335 445 335ZM383 368C378.029 368 374 363.971 374 359 374 354.029 378.029 350 383 350 387.971 350 392 354.029 392 359 392 363.971 387.971 368 383 368Z" fill="#3CBCAD"/><path d="M398 271C398 268.791 399.791 267 402 267 404.209 267 406 268.791 406 271 406 273.209 404.209 275 402 275 399.791 275 398 273.209 398 271Z" fill="#FFFFFF" fill-rule="evenodd"/><path d="M413 294C413 291.791 414.791 290 417 290 419.209 290 421 291.791 421 294 421 296.209 419.209 298 417 298 414.791 298 413 296.209 413 294Z" fill="#FFFFFF" fill-rule="evenodd"/><path d="M384 317C384 314.791 385.791 313 388 313 390.209 313 392 314.791 392 317 392 319.209 390.209 321 388 321 385.791 321 384 319.209 384 317Z" fill="#FFFFFF" fill-rule="evenodd"/><path d="M379 359C379 356.791 380.791 355 383 355 385.209 355 387 356.791 387 359 387 361.209 385.209 363 383 363 380.791 363 379 361.209 379 359Z" fill="#FFFFFF" fill-rule="evenodd"/><path d="M409.313 351.09 422.523 367.09 420.209 366 478 366 478 372 418.796 372 404.687 354.91ZM478 360C482.971 360 487 364.029 487 369 487 373.971 482.971 378 478 378 473.029 378 469 373.971 469 369 469 364.029 473.029 360 478 360Z" fill="#3CBCAD"/><path d="M474 369C474 366.791 475.791 365 478 365 480.209 365 482 366.791 482 369 482 371.209 480.209 373 478 373 475.791 373 474 371.209 474 369Z" fill="#FFFFFF" fill-rule="evenodd"/></g></svg>