<svg xmlns="http://www.w3.org/2000/svg" viewBox="0 0 210.57 222.26"><defs><style>.cls-1{fill:#3cbcad;}.cls-2{fill:#2e897c;}.cls-3{fill:#1e5b52;}</style></defs><title>자산 3</title><g id="레이어_2" data-name="레이어 2"><g id="레이어_1-2" data-name="레이어 1"><path class="cls-1" d="M59.81.08c6.66,0,13.31-.17,20,0C91.6.48,100,9,100.19,20.84c.11,7.48-.06,15,.07,22.45,0,2.7-.79,3.77-3.66,3.91a106,106,0,0,0-27.32,5.14c-2.87.92-4.56.35-6.42-1.84-10-11.76-20.16-23.42-30.24-35.13A21,21,0,0,1,30.85,13c-4.16-6.43-1.66-12,6-12.67,5.45-.48,11-.21,16.45-.26,2.16,0,4.32,0,6.48,0Z"/><path class="cls-1" d="M111.09,46.8c0-10.12-.48-19.78.13-29.38.59-9.25,9.39-17,19.12-17.21,14-.3,28-.1,42-.06,3.8,0,7.6.69,9.37,4.49s-.3,7.22-2.69,10.06c-8,9.54-17,18.45-24.2,28.56-6.08,8.5-12.33,10.76-22,6.87C126.24,47.48,118.86,47.42,111.09,46.8Z"/><path class="cls-1" d="M59.56,222.23q-10,0-20,0c-3.92,0-8-.15-10-4.15-2.06-4.18.24-7.8,2.9-10.91,8.76-10.24,18.05-20.07,26.3-30.7,4.67-6,8.9-7.72,16.17-4.9,6.43,2.49,13.54,3.38,20.56,3.54,3.58.08,4.91,1.56,4.79,5.22-.25,7.15,0,14.32-.11,21.48-.22,11.95-8.71,20.31-20.63,20.41C72.89,222.28,66.22,222.23,59.56,222.23Z"/><path class="cls-1" d="M151.25,222.23c-6.66,0-13.32.07-20,0-11.58-.13-20.15-8.66-20.29-20.21-.09-7.49.1-15-.08-22.48-.07-3.05,1.22-4.23,4-4.35a110.84,110.84,0,0,0,27.83-5.31c2.36-.73,3.71-.12,5.15,1.56,10.27,12,20.62,23.94,30.84,36,2.49,2.94,4.9,6.36,2.89,10.42s-5.9,4.43-9.9,4.4C164.9,222.2,158.08,222.23,151.25,222.23Z"/><path class="cls-1" d="M157.3,164.69c16.78-6.9,32.18-16.89,47.71-28.27.36,5.21.87,9.45.89,13.69.1,16.33.07,32.65,0,49a40.23,40.23,0,0,1-.74,7.42c-1.1,5.69-4.79,7.12-9.36,3.62-3.6-2.76-6.2-6.49-9.15-9.88q-14.08-16.2-28.14-32.42A3.3,3.3,0,0,1,157.3,164.69Z"/><path class="cls-1" d="M205.13,86.14c-15.67-11.6-31-21.44-48.13-28.53,1.66-4.52,5.32-7.07,8-10.29,9-10.68,18.11-21.24,27.29-31.75,2.39-2.73,5.17-6.07,9.14-4.93,4.29,1.24,4.21,5.89,4.24,9.34C205.93,41.56,206.55,63.15,205.13,86.14Z"/><path class="cls-1" d="M54.76,165.14c-8,9.35-15.49,18.06-23,26.7Q24.23,200.5,16.53,209c-1.83,2-4.05,3.69-7,2.76-2.82-.88-3.34-3.44-3.78-5.95a7.16,7.16,0,0,1-.25-1c0-22.42,0-44.84,0-69C21.32,148,36.93,157.49,54.76,165.14Z"/><path class="cls-1" d="M54.66,57.3c-17.77,7.51-33.14,17.25-48,28.23A17.86,17.86,0,0,1,5.2,77.21c0-18.46-.06-36.93,0-55.39,0-4.25-.49-9.66,4.5-11.12,4.45-1.3,7.25,3,10,6.15q15,17.32,30.1,34.63C51.32,53.2,52.74,55,54.66,57.3Z"/><path class="cls-2" d="M0,117.05c26,0,50.78,0,75.54,0,3.58,0,7.21.77,8.94,4.34s.28,7.17-2.11,10.16C76.25,139.25,70,146.83,63.91,154.5c-1.4,1.76-2.8,1.83-4.77,1C37.45,146.49,18.31,133.58,0,117.05Z"/><path class="cls-3" d="M210.57,117.41A204.09,204.09,0,0,1,167.8,148c-5,2.67-10.24,4.79-15.33,7.28-2.24,1.09-3.79,1.08-5.53-1.14-5.65-7.21-11.59-14.2-17.32-21.34a20,20,0,0,1-3.06-5.12c-1.84-4.64-.09-8.28,4.68-9.76a20.12,20.12,0,0,1,5.88-.86q35.49-.09,71,0A22.15,22.15,0,0,1,210.57,117.41Z"/><path class="cls-2" d="M.2,106.21A201.85,201.85,0,0,1,27,85.11a187.23,187.23,0,0,1,31.58-17c2.17-.92,3.8-1.27,5.58,1,5.62,7.22,11.51,14.23,17.24,21.36A21.58,21.58,0,0,1,84,94.7c2.59,5.42.74,9.44-5.05,11.06a11.76,11.76,0,0,1-2.95.44C51.27,106.22,26.5,106.21.2,106.21Z"/><path class="cls-3" d="M210.2,105.44c-2.24,1.25-3.91.81-5.51.81q-32.92.06-65.86,0a41.37,41.37,0,0,1-5-.17c-7.34-.89-10.23-6.26-6.21-12.42,5.92-9.06,13.43-16.91,20.17-25.34,1.24-1.56,2.51-1.07,4-.47C173.46,76.67,192.43,89.64,210.2,105.44Z"/><path class="cls-3" d="M99.94,164.86c-9.23-.25-17.72-2.16-27.08-4.49,6.41-8,11.59-16.21,19.21-22.3,3.74-3,7.27-1,7.88,4.16C100.81,149.64,100.11,157.07,99.94,164.86Z"/><path class="cls-3" d="M138.3,160.08A114,114,0,0,1,111.2,165c-.46-7.92-.77-15.54.06-23.09.59-5.44,4.74-6.86,8.91-3.07C126.91,145,131.89,152.63,138.3,160.08Z"/><path class="cls-2" d="M73.14,63.32c9-3.26,17.57-4.16,26.64-5,.51,8.13,1,15.75.06,23.33-.62,4.89-4.64,6.51-8.34,3.25C84.5,78.75,79.17,71.11,73.14,63.32Z"/><path class="cls-2" d="M111.1,58.38c9.31.67,17.78,1.82,26.86,4.83-6.26,8.1-11.55,16.31-19.33,22.29-3.46,2.66-7.15.45-7.43-4.51C110.79,73.71,111.1,66.4,111.1,58.38Z"/></g></g></svg>