<svg xmlns="http://www.w3.org/2000/svg" viewBox="0 0 311.31 293.72"><defs><style>.cls-1{fill:#fff;}</style></defs><title>R_wh</title><g id="레이어_2" data-name="레이어 2"><g id="레이어_1-2" data-name="레이어 1"><path class="cls-1" d="M258.51,131.41a278,278,0,0,1,31.86-1.23l.38-6.21a288.87,288.87,0,0,0-32.86,1.14Z"/><path class="cls-1" d="M195.46,146.53a276.12,276.12,0,0,1,30.41-9.61l-1.57-6.13a282.23,282.23,0,0,0-31.1,9.83Z"/><path class="cls-1" d="M140,179.25a278.37,278.37,0,0,1,26-18.44l-3.37-5.36A284.1,284.1,0,0,0,136,174.31Z"/><path class="cls-1" d="M113.9,194.74c-6.28,6.89-12.16,14-17.55,21.22-1,1.36-2,2.73-3,4.09l5.14,3.7S111.28,207,118.58,199Z"/><path class="cls-1" d="M76.12,246.48a283.5,283.5,0,0,0-13.36,29.76l5.92,2.25A275.81,275.81,0,0,1,81.74,249.4Z"/><path class="cls-1" d="M252.08,92.94l3.28-16.28A95.58,95.58,0,0,0,257,59.53q0-23.64-14.67-39.14Q222.75,0,176.26,0H58L0,293.72s7.25-.09,15.48-.14c4-10.21,22.4-54.24,60.71-96.42,47.65-52.46,106.43-83.48,173.73-88.36,23.33-1.83,40.33-1.67,59.37.66l2-16.57C295.69,91.75,267.06,91.45,252.08,92.94Zm-77.36,15.78c-1.18,2.78-17.49,8.32-33.43,17.11L139,127.11a272,272,0,0,0-32.48,21L120,63.61h30.58q27.74,0,27.73,33C178.08,100.11,177.88,104.92,174.72,108.72Z"/><path class="cls-1" d="M228.65,156.44c-30.88,10.22-58.12,29.81-80.45,58.21-3,3.86-5.86,7.72-8.48,11.54a240.45,240.45,0,0,0-21.2,38c-5.48,12.34-10.15,28.67-10.35,29.37l17.91.08a229,229,0,0,1,20.43-45.7l14.26,45.65h82.36L209,184c23.86-13.56,63.6-20.67,93.57-19.19l2.12-17.39C282.68,146.3,247.94,150.05,228.65,156.44Z"/></g></g></svg>