<svg xmlns="http://www.w3.org/2000/svg" viewBox="0 0 1214.56 387.63"><defs><style>.cls-1{fill:#fff;}</style></defs><title>rfms_wh</title><g id="레이어_2" data-name="레이어 2"><g id="레이어_1-2" data-name="레이어 1"><path class="cls-1" d="M485.61,88.2q33,0,46.91,14.48,10.43,11,10.42,27.8a68.26,68.26,0,0,1-1.16,12.16l-4,22.58q-3.48,18.83-12,30.41t-19,16.5l26.35,84.56H474.6l-24.32-77.9H432.33l-11.87,77.9h-55.6L401.63,88.2Zm-18.24,45.17H445.65l-7.53,50.39h20.27q15.35,0,22-7.39t6.66-19.54Q487.06,133.37,467.37,133.37Z"/><path class="cls-1" d="M697.57,220.24h-77l-13.32,76.45H554.81L591.59,88.2H737l-8.11,45.17H635.6l-7.24,41.7h77Z"/><path class="cls-1" d="M820.34,88.2l31,99.9,66.6-99.9h54.73L935.88,296.69H883.47l20.84-117.57L859.72,249.2H821.79L802.1,179.12,781.25,296.69H729.13L765.9,88.2Z"/><path class="cls-1" d="M1032.3,237.33q0,20,28.81,20t28.81-18q0-9.56-9.84-15.63a96.35,96.35,0,0,0-23.89-10.14q-14.06-4.05-28.09-9.41a58.58,58.58,0,0,1-23.89-16.79q-9.84-11.44-9.84-28.53,0-72.67,93.53-72.68,34.15,0,51.68,12.89t17.52,35.76a58.61,58.61,0,0,1-2.17,16.07q-2.17,7.68-4.49,10.86l-2.32,3.47h-51.25q6.38-6.66,6.37-16.79,0-18.83-24.61-18.82-31,0-31,19.69,0,9.84,9.84,15.63a85.86,85.86,0,0,0,23.89,9.13,291.58,291.58,0,0,1,28.23,8.25,55,55,0,0,1,24,16.36q9.84,11.45,9.84,29.68,0,36.78-22,54.58t-67.76,17.81q-45.76,0-62.55-16.22-12.45-12.15-12.45-33.59a99.09,99.09,0,0,1,1.74-17.66l.87-4.63h52.12l-.58,3.47A26.57,26.57,0,0,0,1032.3,237.33Z"/><path class="cls-1" d="M261.2,131.41a277.78,277.78,0,0,1,31.86-1.23l.37-6.21a288.77,288.77,0,0,0-32.85,1.14Z"/><path class="cls-1" d="M198.15,146.53a276,276,0,0,1,30.4-9.61L227,130.79a281.56,281.56,0,0,0-31.1,9.83Z"/><path class="cls-1" d="M142.68,179.25a278.21,278.21,0,0,1,26-18.44l-3.36-5.36a282.79,282.79,0,0,0-26.61,18.86Z"/><path class="cls-1" d="M116.59,194.74c-6.28,6.89-12.17,14-17.56,21.22-1,1.36-2,2.73-3,4.09l5.14,3.7S114,207,121.27,199Z"/><path class="cls-1" d="M78.8,246.48a285.58,285.58,0,0,0-13.36,29.76l5.92,2.25A277.87,277.87,0,0,1,84.42,249.4Z"/><path class="cls-1" d="M27,379.9,14.58,362.38H7.8V379.9H0V334.71H18.54a15.83,15.83,0,0,1,10.77,3.91,12.25,12.25,0,0,1,4.47,9.59,13.87,13.87,0,0,1-2.91,8.59,12.74,12.74,0,0,1-7.17,4.91L36.54,379.9Zm-3.81-26.77a6.1,6.1,0,0,0,0-9.75,10.45,10.45,0,0,0-6-1.64H7.56v13l9.66.06A10.53,10.53,0,0,0,23.19,353.13Z"/><path class="cls-1" d="M61.74,379.71a9.28,9.28,0,0,1-.54-1.55,18.5,18.5,0,0,1-.48-2.4,15.06,15.06,0,0,1-4.65,3.12A19.09,19.09,0,0,1,50,380.62a13.5,13.5,0,0,1-8-1.32,7.75,7.75,0,0,1-4-6.36,8.83,8.83,0,0,1,1.89-7.23,13.23,13.23,0,0,1,6.09-4.17,29.56,29.56,0,0,1,5.55-1.24,41.27,41.27,0,0,0,4.65-.75,15.17,15.17,0,0,0,3.09-1,2.42,2.42,0,0,0,1.59-2.46,3,3,0,0,0-1.86-2.69,11,11,0,0,0-5.22-1A8.53,8.53,0,0,0,48.45,354a4.39,4.39,0,0,0-2,3.87H39.12a9.47,9.47,0,0,1,3.93-8.64A16.48,16.48,0,0,1,53.7,345.7a19.89,19.89,0,0,1,10.53,2.72,8.7,8.7,0,0,1,4.47,7.84v18a12.62,12.62,0,0,0,.51,3.78c.34,1.08.53,1.65.57,1.74Zm-1-15.41a6.61,6.61,0,0,1-1.83,1l-1.89.66q-1.92.42-4.26.87a21.93,21.93,0,0,0-3.72,1,7.51,7.51,0,0,0-2.64,1.68,2.31,2.31,0,0,0-.36,2.51,2.61,2.61,0,0,0,3.09,1.83,17.74,17.74,0,0,0,4.35-.86,17,17,0,0,0,4.86-2.68,5.11,5.11,0,0,0,2.4-4.05Z"/><path class="cls-1" d="M104,350.62q3.93,5,3.93,12.59T104,375.88a12.75,12.75,0,0,1-10.53,5A13.23,13.23,0,0,1,88,379.69a16,16,0,0,1-4.68-3.27v11.09H75.48V347h7.86v3.07A16.06,16.06,0,0,1,88,346.8a13.23,13.23,0,0,1,5.46-1.17A12.73,12.73,0,0,1,104,350.62Zm-6.15,20.55a13.06,13.06,0,0,0,2.28-8,12.62,12.62,0,0,0-2.28-7.85,7.35,7.35,0,0,0-6.18-3,7.6,7.6,0,0,0-6.27,3A12.28,12.28,0,0,0,83,363.21a12.7,12.7,0,0,0,2.37,8,7.52,7.52,0,0,0,6.27,3.09A7.28,7.28,0,0,0,97.86,371.17Z"/><path class="cls-1" d="M113.76,342.46v-7.62h7.68v7.62Zm0,37.44V347.32h7.62V379.9Z"/><path class="cls-1" d="M151.38,379.78l.06-3.19a16.27,16.27,0,0,1-4.65,3.19,13.75,13.75,0,0,1-5.61,1.14,12.77,12.77,0,0,1-10.62-5q-3.9-5-3.9-12.6t3.9-12.63a12.8,12.8,0,0,1,10.62-4.95,14.24,14.24,0,0,1,5.61,1.08,14.58,14.58,0,0,1,4.65,3.17l-.06-15.35h7.8v45.12Zm-1.83-8.56a13.27,13.27,0,0,0,2.19-7.88,13.14,13.14,0,0,0-2.19-7.89,8.32,8.32,0,0,0-12.84,0,13.14,13.14,0,0,0-2.19,7.89,13.27,13.27,0,0,0,2.19,7.88,8.2,8.2,0,0,0,12.84,0Z"/><path class="cls-1" d="M221.82,362.13H184.44v-7.85h37.38Z"/><path class="cls-1" d="M274,379.9l-12.42-17.52h-6.78V379.9H247V334.71H265.5a15.83,15.83,0,0,1,10.77,3.91,12.25,12.25,0,0,1,4.47,9.59,13.87,13.87,0,0,1-2.91,8.59,12.74,12.74,0,0,1-7.17,4.91L283.5,379.9Zm-3.81-26.77a6.1,6.1,0,0,0,0-9.75,10.45,10.45,0,0,0-6-1.64h-9.66v13l9.66.06A10.53,10.53,0,0,0,270.15,353.13Z"/><path class="cls-1" d="M313,350.86a19.81,19.81,0,0,1,0,24.81,16,16,0,0,1-23.55,0,19.81,19.81,0,0,1,0-24.81,14.64,14.64,0,0,1,11.82-5.23A14.48,14.48,0,0,1,313,350.86Zm-5.61,19.94a13.56,13.56,0,0,0,0-15.05,7.67,7.67,0,0,0-12.3,0,13.56,13.56,0,0,0,0,15.05,7.56,7.56,0,0,0,12.3,0Z"/><path class="cls-1" d="M344.28,379.71a9.28,9.28,0,0,1-.54-1.55,18.5,18.5,0,0,1-.48-2.4,15.06,15.06,0,0,1-4.65,3.12,19.16,19.16,0,0,1-6.09,1.74,13.48,13.48,0,0,1-8-1.32,7.75,7.75,0,0,1-4-6.36,8.83,8.83,0,0,1,1.89-7.23,13.23,13.23,0,0,1,6.09-4.17A29.39,29.39,0,0,1,334,360.3a41.27,41.27,0,0,0,4.65-.75,15.17,15.17,0,0,0,3.09-1,2.42,2.42,0,0,0,1.59-2.46,3,3,0,0,0-1.86-2.69,11,11,0,0,0-5.22-1A8.53,8.53,0,0,0,331,354a4.39,4.39,0,0,0-2,3.87h-7.32c-.33-3.4,1-6.28,3.93-8.64a16.48,16.48,0,0,1,10.65-3.54,19.89,19.89,0,0,1,10.53,2.72,8.7,8.7,0,0,1,4.47,7.84v18a12.62,12.62,0,0,0,.51,3.78c.33,1.08.53,1.65.57,1.74Zm-1-15.41a6.61,6.61,0,0,1-1.83,1l-1.89.66c-1.29.28-2.7.57-4.26.87a21.93,21.93,0,0,0-3.72,1,7.51,7.51,0,0,0-2.64,1.68,2.31,2.31,0,0,0-.36,2.51,2.61,2.61,0,0,0,3.09,1.83,17.84,17.84,0,0,0,4.35-.86,17,17,0,0,0,4.86-2.68,5.11,5.11,0,0,0,2.4-4.05Z"/><path class="cls-1" d="M380.81,379.78l.07-3.19a16.55,16.55,0,0,1-4.65,3.19,13.79,13.79,0,0,1-5.61,1.14,12.74,12.74,0,0,1-10.62-5c-2.61-3.32-3.9-7.52-3.9-12.6s1.29-9.33,3.9-12.63a12.77,12.77,0,0,1,10.62-4.95,14.28,14.28,0,0,1,5.61,1.08,14.8,14.8,0,0,1,4.65,3.17l-.07-15.35h7.81v45.12ZM379,371.22a13.27,13.27,0,0,0,2.2-7.88,13.14,13.14,0,0,0-2.2-7.89,8.31,8.31,0,0,0-12.83,0,13.07,13.07,0,0,0-2.19,7.89,13.2,13.2,0,0,0,2.19,7.88,8.19,8.19,0,0,0,12.83,0Z"/><path class="cls-1" d="M424.37,342V353.8H445v7.32H424.37v18.72h-7.8V334.78h31.5V342Z"/><path class="cls-1" d="M473.27,379.71a9.28,9.28,0,0,1-.54-1.55,18.5,18.5,0,0,1-.48-2.4,15.06,15.06,0,0,1-4.65,3.12,19.09,19.09,0,0,1-6.09,1.74,13.5,13.5,0,0,1-8-1.32,7.75,7.75,0,0,1-4-6.36,8.83,8.83,0,0,1,1.89-7.23,13.23,13.23,0,0,1,6.09-4.17A29.56,29.56,0,0,1,463,360.3a41.27,41.27,0,0,0,4.65-.75,15.17,15.17,0,0,0,3.09-1,2.42,2.42,0,0,0,1.59-2.46,3,3,0,0,0-1.86-2.69,11,11,0,0,0-5.22-1A8.53,8.53,0,0,0,460,354a4.39,4.39,0,0,0-2,3.87h-7.32a9.47,9.47,0,0,1,3.93-8.64,16.48,16.48,0,0,1,10.65-3.54,19.89,19.89,0,0,1,10.53,2.72,8.7,8.7,0,0,1,4.47,7.84v18a12.62,12.62,0,0,0,.51,3.78c.34,1.08.53,1.65.57,1.74Zm-1-15.41a6.61,6.61,0,0,1-1.83,1l-1.89.66q-1.92.42-4.26.87a21.93,21.93,0,0,0-3.72,1,7.51,7.51,0,0,0-2.64,1.68,2.31,2.31,0,0,0-.36,2.51,2.61,2.61,0,0,0,3.09,1.83,17.74,17.74,0,0,0,4.35-.86,17,17,0,0,0,4.86-2.68,5.11,5.11,0,0,0,2.4-4.05Z"/><path class="cls-1" d="M508.31,357.4a8.37,8.37,0,0,0-2-2.82,6.49,6.49,0,0,0-4.83-1.62,7.05,7.05,0,0,0-6.15,3,13.46,13.46,0,0,0,0,14.58,7,7,0,0,0,6.12,3.09,6.43,6.43,0,0,0,4.65-1.59,7.26,7.26,0,0,0,2.07-3l8.46,0a16.9,16.9,0,0,1-4.92,8q-3.9,3.81-10.38,3.81c-5,0-9-1.74-11.85-5.19a19.83,19.83,0,0,1,0-24.79q4.35-5.17,11.85-5.18a14.41,14.41,0,0,1,10.59,4q4.05,4,4.83,7.75Z"/><path class="cls-1" d="M522.23,342.46v-7.62h7.68v7.62Zm0,37.44V347.32h7.62V379.9Z"/><path class="cls-1" d="M537.77,379.78V334.71h7.68l.12,45.07Z"/><path class="cls-1" d="M553.31,342.46v-7.62H561v7.62Zm0,37.44V347.32h7.62V379.9Z"/><path class="cls-1" d="M578,379.84a9.15,9.15,0,0,1-3.33-.58,8.6,8.6,0,0,1-2.67-1.64,8.17,8.17,0,0,1-1.59-2.7,10.72,10.72,0,0,1-.63-3.79V353.8H566V347h3.84V336.94h8V347h4.5v6.79h-4.5v15.71a8.1,8.1,0,0,0,.15,1.78,2.16,2.16,0,0,0,.87,1.17,2.76,2.76,0,0,0,1.47.63,19,19,0,0,0,2,.08v6.67Z"/><path class="cls-1" d="M587.75,342.46v-7.62h7.68v7.62Zm0,37.44V347.32h7.62V379.9Z"/><path class="cls-1" d="M608.87,365.8a10,10,0,0,0,2,5.16A6.78,6.78,0,0,0,617,374a7.75,7.75,0,0,0,4.29-1.13,9.89,9.89,0,0,0,2.37-1.92h8.1a17.86,17.86,0,0,1-4.59,6.33c-2.26,2.13-5.61,3.21-10,3.21a14.7,14.7,0,0,1-11.55-5.08,17.71,17.71,0,0,1-4.47-12.14A18.07,18.07,0,0,1,605.42,351,14.54,14.54,0,0,1,617,346a15.77,15.77,0,0,1,11.34,4.8q4.92,4.8,4.26,15Zm15.78-6.25a9.34,9.34,0,0,0-2.55-5.13,8,8,0,0,0-10.56.25,9.34,9.34,0,0,0-2.49,4.88Z"/><path class="cls-1" d="M662.93,365.46a7.16,7.16,0,0,1,1.56,5.13q-.24,4.16-4.26,7.21a14.93,14.93,0,0,1-9.3,3.06q-8.22-.08-11.37-4.44c-2.1-2.92-3.19-5.29-3.27-7.08h7.32a5,5,0,0,0,1.89,3.21,7.34,7.34,0,0,0,5.07,1.58,7.5,7.5,0,0,0,4.44-1.08,3.08,3.08,0,0,0,1.56-2.15,2.57,2.57,0,0,0-.57-2,5.54,5.54,0,0,0-2.07-1.45,31.73,31.73,0,0,0-5.25-1.61,39.15,39.15,0,0,1-5.07-1.44,10.47,10.47,0,0,1-5-3.54,7.83,7.83,0,0,1-1.26-5.41q.3-3.35,3.63-6.47t9.21-3.12q6.3,0,9.84,3.27t3.36,7h-7.08a3.18,3.18,0,0,0-1.59-2.37,6.72,6.72,0,0,0-4-1.17,9.59,9.59,0,0,0-4,.73,2.69,2.69,0,0,0-1.71,2.15,2.51,2.51,0,0,0,.66,2.08,6.77,6.77,0,0,0,2.64,1.46q2,.56,5.19,1.27a22.77,22.77,0,0,1,5.61,2A11.72,11.72,0,0,1,662.93,365.46Z"/><path class="cls-1" d="M724.91,379.66V354.21L716,379.71h-9.06L698,354.4v25.26h-7.74v-45h9.42l11.88,35.1,11.64-35.1h9.42l.06,45Z"/><path class="cls-1" d="M766.4,350.86a19.81,19.81,0,0,1,0,24.81,16,16,0,0,1-23.55,0,19.81,19.81,0,0,1,0-24.81,14.64,14.64,0,0,1,11.82-5.23A14.48,14.48,0,0,1,766.4,350.86Zm-5.61,19.94a13.56,13.56,0,0,0,0-15.05,7.67,7.67,0,0,0-12.3,0,13.56,13.56,0,0,0,0,15.05,7.56,7.56,0,0,0,12.3,0Z"/><path class="cls-1" d="M796.43,379.78V361.36a9.85,9.85,0,0,0-1.47-5.82,5.21,5.21,0,0,0-4.53-2,6.32,6.32,0,0,0-5.13,2.19,9,9,0,0,0-1.83,6v18.12h-7.86v-32.7h7.86V350a16.15,16.15,0,0,1,4.38-3.06,11.55,11.55,0,0,1,6.3-.9,9.94,9.94,0,0,1,7.59,4.2,12.6,12.6,0,0,1,2.61,7.2v22.38Z"/><path class="cls-1" d="M811.91,342.46v-7.62h7.68v7.62Zm0,37.44V347.32h7.62V379.9Z"/><path class="cls-1" d="M836.63,379.84a9.15,9.15,0,0,1-3.33-.58,8.6,8.6,0,0,1-2.67-1.64,8.17,8.17,0,0,1-1.59-2.7,10.72,10.72,0,0,1-.63-3.79V353.8h-3.84V347h3.84V336.94h8V347h4.5v6.79h-4.5v15.71a8.1,8.1,0,0,0,.15,1.78,2.16,2.16,0,0,0,.87,1.17,2.76,2.76,0,0,0,1.47.63,19,19,0,0,0,2,.08v6.67Z"/><path class="cls-1" d="M872,350.86a19.81,19.81,0,0,1,0,24.81,16,16,0,0,1-23.55,0,19.81,19.81,0,0,1,0-24.81,14.64,14.64,0,0,1,11.82-5.23A14.48,14.48,0,0,1,872,350.86Zm-5.61,19.94a13.56,13.56,0,0,0,0-15.05,7.67,7.67,0,0,0-12.3,0,13.56,13.56,0,0,0,0,15.05,7.56,7.56,0,0,0,12.3,0Z"/><path class="cls-1" d="M899.57,353.86a18.09,18.09,0,0,0-3.15.27,8,8,0,0,0-3.21,1.46,8.52,8.52,0,0,0-3.06,3.4,12.34,12.34,0,0,0-1,5.43v15.36h-7.86V347.26h7.86v3.6l.3.11a17.49,17.49,0,0,1,2.07-2.27,10.08,10.08,0,0,1,3-1.86,14.62,14.62,0,0,1,3.18-.9c1.16-.2,1.78-.31,1.86-.31Z"/><path class="cls-1" d="M905.33,342.46v-7.62H913v7.62Zm0,37.44V347.32H913V379.9Z"/><path class="cls-1" d="M941,379.78V361.36a9.85,9.85,0,0,0-1.47-5.82,5.21,5.21,0,0,0-4.53-2,6.32,6.32,0,0,0-5.13,2.19,9,9,0,0,0-1.83,6v18.12h-7.86v-32.7H928V350a16.15,16.15,0,0,1,4.38-3.06,11.55,11.55,0,0,1,6.3-.9,9.94,9.94,0,0,1,7.59,4.2,12.6,12.6,0,0,1,2.61,7.2v22.38Z"/><path class="cls-1" d="M986.38,373.59c.08,5.49-1.67,9.19-5.25,11.13a22.1,22.1,0,0,1-10.65,2.91q-7.14,0-11.13-3.38c-2.66-2.27-4.07-4.75-4.23-7.47h7.68c0,1,.77,1.93,2.31,2.81a10.64,10.64,0,0,0,5.37,1.33,9.71,9.71,0,0,0,5.73-1.66,5.63,5.63,0,0,0,2.37-4.94V372a17.49,17.49,0,0,1-4.74,2.95,14.49,14.49,0,0,1-5.58,1.08,13.47,13.47,0,0,1-10.47-4.33q-3.93-4.31-3.93-11.21a14.06,14.06,0,0,1,4.29-10.75,14.33,14.33,0,0,1,10.11-4,16.34,16.34,0,0,1,5.58.93,14.64,14.64,0,0,1,4.74,2.84v-2.81h7.8Zm-9.93-6.54a9,9,0,0,0,2.43-6.59c0-2.76-.79-4.87-2.37-6.3a9,9,0,0,0-6.33-2.16,8.77,8.77,0,0,0-6.27,2.16c-1.54,1.43-2.31,3.54-2.31,6.3a9.3,9.3,0,0,0,2.28,6.59,8.06,8.06,0,0,0,6.24,2.46A8.47,8.47,0,0,0,976.45,367.05Z"/><path class="cls-1" d="M1045.63,361a10.77,10.77,0,0,1,1.65,7.29,13,13,0,0,1-4.92,8.9q-4.5,3.87-12.42,3.87-8.52,0-13.53-5.42t-4.71-11.2h7.68a8.51,8.51,0,0,0,3.06,6.58,10.86,10.86,0,0,0,7.5,2.73,11,11,0,0,0,6.27-1.5,6.3,6.3,0,0,0,2.73-3.9,4.42,4.42,0,0,0-.69-3.75,8.17,8.17,0,0,0-3.27-2.55,21.21,21.21,0,0,0-6.12-2,31.75,31.75,0,0,1-6.66-2,16.06,16.06,0,0,1-6.75-4.76,10.57,10.57,0,0,1-2.13-7.59q.3-4.26,4.2-8.25t12-4q9.12,0,12.93,5.49t3.51,9.45h-7.68a8,8,0,0,0-2.13-5.31q-2.07-2.31-6.51-2.31t-6.18,1.73a5.88,5.88,0,0,0-1.8,3.73,3.88,3.88,0,0,0,1.65,3.63,16.76,16.76,0,0,0,4,2.18,49.07,49.07,0,0,0,5.91,1.62,29.88,29.88,0,0,1,7.11,2.65A13.78,13.78,0,0,1,1045.63,361Z"/><path class="cls-1" d="M1069,381.09a10.33,10.33,0,0,1-2.13,3.33,9.75,9.75,0,0,1-2.55,2,8.65,8.65,0,0,1-3,.9,26.17,26.17,0,0,1-2.88.17h-4.08v-6.84l3.36-.05a4,4,0,0,0,2.46-.82,4.29,4.29,0,0,0,1.5-1.94l.06-1.62-11.82-29.4,8.46-.06,8,19.85,8.16-19.85,8.4.06Z"/><path class="cls-1" d="M1110.88,365.46a7.16,7.16,0,0,1,1.56,5.13q-.24,4.16-4.26,7.21a14.93,14.93,0,0,1-9.3,3.06q-8.22-.08-11.37-4.44c-2.1-2.92-3.19-5.29-3.27-7.08h7.32a5,5,0,0,0,1.89,3.21,7.34,7.34,0,0,0,5.07,1.58,7.5,7.5,0,0,0,4.44-1.08,3.08,3.08,0,0,0,1.56-2.15,2.57,2.57,0,0,0-.57-2,5.54,5.54,0,0,0-2.07-1.45,31.73,31.73,0,0,0-5.25-1.61,39.15,39.15,0,0,1-5.07-1.44,10.47,10.47,0,0,1-5-3.54,7.83,7.83,0,0,1-1.26-5.41q.3-3.35,3.63-6.47t9.21-3.12q6.3,0,9.84,3.27t3.36,7h-7.08a3.18,3.18,0,0,0-1.59-2.37,6.72,6.72,0,0,0-4.05-1.17,9.59,9.59,0,0,0-4,.73,2.69,2.69,0,0,0-1.71,2.15,2.51,2.51,0,0,0,.66,2.08,6.77,6.77,0,0,0,2.64,1.46q2,.56,5.19,1.27a22.77,22.77,0,0,1,5.61,2A11.72,11.72,0,0,1,1110.88,365.46Z"/><path class="cls-1" d="M1127.2,379.84a9.15,9.15,0,0,1-3.33-.58,8.6,8.6,0,0,1-2.67-1.64,8.17,8.17,0,0,1-1.59-2.7,10.72,10.72,0,0,1-.63-3.79V353.8h-3.84V347H1119V336.94h8V347h4.5v6.79H1127v15.71a8.1,8.1,0,0,0,.15,1.78,2.16,2.16,0,0,0,.87,1.17,2.76,2.76,0,0,0,1.47.63,19,19,0,0,0,2,.08v6.67Z"/><path class="cls-1" d="M1142.5,365.8a10,10,0,0,0,2,5.16,6.78,6.78,0,0,0,6.09,3.05,7.75,7.75,0,0,0,4.29-1.13,9.89,9.89,0,0,0,2.37-1.92h8.1a17.86,17.86,0,0,1-4.59,6.33c-2.26,2.13-5.61,3.21-10,3.21a14.7,14.7,0,0,1-11.55-5.08,17.71,17.71,0,0,1-4.47-12.14,18.07,18.07,0,0,1,4.35-12.24,14.54,14.54,0,0,1,11.61-5,15.77,15.77,0,0,1,11.34,4.8q4.92,4.8,4.26,15Zm15.78-6.25a9.34,9.34,0,0,0-2.55-5.13,8,8,0,0,0-10.56.25,9.34,9.34,0,0,0-2.49,4.88Z"/><path class="cls-1" d="M1206.7,379.66l-.06-19.38a13.82,13.82,0,0,0-.84-5,3.23,3.23,0,0,0-3.54-2,4.67,4.67,0,0,0-4,2.06,10.24,10.24,0,0,0-1.38,5.79v18.61h-7.8V360.28a13.82,13.82,0,0,0-.84-5,3.23,3.23,0,0,0-3.54-2,4.52,4.52,0,0,0-3.9,2.06,10.6,10.6,0,0,0-1.32,5.79v18.61h-7.86V347.08h7.86v3.05a19.16,19.16,0,0,1,3-2.67,8.56,8.56,0,0,1,5.19-1.52,8.69,8.69,0,0,1,4.65,1.28,7.43,7.43,0,0,1,3,3.4,24.75,24.75,0,0,1,3.3-3.28q2.22-1.87,7-1.4a8.62,8.62,0,0,1,6.69,3.72,12.7,12.7,0,0,1,2.25,7.31v22.69Z"/><path class="cls-1" d="M254.77,92.94l3.28-16.28a96.5,96.5,0,0,0,1.63-17.13q0-23.64-14.68-39.14Q225.43,0,179,0H60.7l-58,293.72s7.25-.09,15.49-.14c4-10.21,22.4-54.24,60.7-96.42,47.65-52.46,106.44-83.48,173.73-88.36,23.33-1.83,40.33-1.67,59.37.66l2-16.57C298.38,91.75,269.75,91.45,254.77,92.94ZM177.4,108.72c-1.17,2.78-17.49,8.32-33.42,17.11l-2.28,1.28a272.13,272.13,0,0,0-32.49,21l13.47-84.48h30.58q27.72,0,27.72,33C180.76,100.11,180.57,104.92,177.4,108.72Z"/><path class="cls-1" d="M231.34,156.44c-30.88,10.22-58.12,29.81-80.46,58.21-3,3.86-5.85,7.72-8.47,11.54a239.65,239.65,0,0,0-21.2,38c-5.49,12.34-10.16,28.67-10.36,29.37l17.92.08a228.36,228.36,0,0,1,20.43-45.7l14.25,45.65h82.37L211.65,184c23.87-13.56,63.61-20.67,93.57-19.19l2.12-17.39C285.37,146.3,250.63,150.05,231.34,156.44Z"/></g></g></svg>