<svg xmlns="http://www.w3.org/2000/svg" viewBox="0 0 1118.64 328"><defs><style>.cls-1{fill:#0678d0;}.cls-2{fill:#26b2fd;}.cls-3{fill:#fff;}</style></defs><title>safety_logo_01_1</title><g id="레이어_2" data-name="레이어 2"><g id="레이어_1-2" data-name="레이어 1"><path class="cls-1" d="M199.22,187.51A258.34,258.34,0,0,1,70.14,222a260.3,260.3,0,0,1-47.69-4.4C59.38,294.75,134.64,328,134.64,328c33.5-17.5,87.5-57,116.5-122,9.46-21.2,14.5-48.78,17-76.33A259.93,259.93,0,0,1,199.22,187.51Z"/><path class="cls-2" d="M270,99.15A704.69,704.69,0,0,0,267.64,16c-146.5-36-260,0-260,0-17.11,99.55-1.26,160.38,6.64,182.5A242.62,242.62,0,0,0,70.14,205C151.15,205,224.91,165.67,270,99.15Z"/><path class="cls-3" d="M18.64,27.5s123.5-31.5,236,0c0,0,4.75,42.75,2,69.5,0,0-9.25-1.75-9.5,8a10,10,0,0,0-12-5.5c-8,2.5-8.5,11-8.5,11s-2,.5-2-6.75v-19h-22.5v16.5h-3.5v-55h-29.5V89.5s-4.75-2-8,1.75V29.75h-52v61.5s-4.75-4.25-7.25.75V78.5H72.64v38.25s.75,6-2,6.25c0,0-6.5-5.75-11.75,1.75,0,0-6.25-8.5-16.5-6-11.25,2.25-12.25,14-12.25,14s0-8-7.5-9a7.88,7.88,0,0,0-8.5,4.5S11.14,74.5,18.64,27.5Z"/><rect class="cls-3" x="78.39" y="82" width="6" height="7"/><rect class="cls-3" x="78.39" y="95.5" width="6" height="7"/><rect class="cls-3" x="117.39" y="40.75" width="6" height="7"/><rect class="cls-3" x="117.39" y="56.25" width="6" height="7"/><rect class="cls-3" x="132.14" y="40.75" width="6" height="7"/><rect class="cls-3" x="132.14" y="56.25" width="6" height="7"/><rect class="cls-3" x="117.39" y="71.75" width="6" height="7"/><rect class="cls-3" x="186.14" y="55" width="6" height="7"/><rect class="cls-3" x="174.89" y="55" width="6" height="7"/><rect class="cls-3" x="186.14" y="68.5" width="6" height="7"/><rect class="cls-3" x="186.14" y="82" width="6" height="7"/><rect class="cls-3" x="186.14" y="107.75" width="6" height="7"/><rect class="cls-3" x="175.14" y="81.75" width="6" height="7"/><rect class="cls-3" x="175.14" y="95.25" width="6" height="7"/><rect class="cls-3" x="208.39" y="95" width="6" height="7"/><rect class="cls-3" x="208.39" y="108.5" width="6" height="7"/><rect class="cls-3" x="147.64" y="56.25" width="6" height="7"/><rect class="cls-3" x="147.64" y="71.75" width="6" height="7"/><rect class="cls-3" x="89.64" y="95.5" width="6" height="7"/><rect class="cls-3" x="89.64" y="108.5" width="6" height="7"/><path class="cls-3" d="M158,133.56a22.32,22.32,0,1,0-35.1,18.29l-3.4,26.9h33.48L149,151.42A22.31,22.31,0,0,0,158,133.56Z"/><path class="cls-2" d="M339.5,222.5H406q11.29,0,11.29-11.17T409.74,198L368,189.68a51,51,0,0,1-16.58-7.06,46.4,46.4,0,0,1-15.53-17.29,49,49,0,0,1-5.77-22.94,47.44,47.44,0,0,1,5.06-22A49.94,49.94,0,0,1,349.86,103Q358.2,97.1,372,94.75q4.71-.82,9.53-1.3h64.82v35.76H383q-11.41,0-11.41,10.71t7.53,13.41l53.64,12.35q24.82,9.42,25.65,38.12a51.4,51.4,0,0,1-3.53,25.88,43,43,0,0,1-15.29,19.53,49.33,49.33,0,0,1-20,8.12,46.88,46.88,0,0,1-9.77.94H339.5Z"/><path class="cls-1" d="M536.43,163.1l-36.35,95H462.32l58.23-155.4a17.65,17.65,0,0,1,6.36-7.42,17.13,17.13,0,0,1,9.41-2.7,18.16,18.16,0,0,1,9.53,2.7,16.48,16.48,0,0,1,6.47,7.42l59,155.52H573.49Z"/><path class="cls-1" d="M629,258.15V123.33q0-29.76,31.17-29.76h75.65V129H667.13v34.23h57.06v35.06H667.13v59.88Z"/><path class="cls-1" d="M860.3,258.27H784.66q-31.18,0-31.18-33.53V123.33q0-29.76,31.18-29.76H860.3V129H791.6v29.53h57v35.05h-57v29.18h68.7Z"/><path class="cls-1" d="M911.47,258.38V129.21H873.24V93.57H986.18v35.64H949.82V258.38Z"/><path class="cls-1" d="M1003.82,93.57h35.53v74.82h42.35V93.57h36.94V232.15q.34,26.11-25.18,26.12l-.59.23h-74.23v-36h63.06V202.86h-46.35q-31.53,0-31.53-30Z"/></g></g></svg>